<svg width="12" height="13" viewBox="0 0 12 13" fill="none" xmlns="http://www.w3.org/2000/svg">
<path d="M10.832 4.05273C10.9727 4.05273 11.1133 3.93555 11.1133 3.77148V2.83398C11.1133 2.69336 10.9727 2.55273 10.832 2.55273H10.3633V1.42773C10.3633 0.818359 9.84766 0.302734 9.23828 0.302734H1.73828C1.10547 0.302734 0.613281 0.818359 0.613281 1.42773V11.1777C0.613281 11.8105 1.10547 12.3027 1.73828 12.3027H9.23828C9.84766 12.3027 10.3633 11.8105 10.3633 11.1777V10.0527H10.832C10.9727 10.0527 11.1133 9.93555 11.1133 9.77148V8.83398C11.1133 8.69336 10.9727 8.55273 10.832 8.55273H10.3633V7.05273H10.832C10.9727 7.05273 11.1133 6.93555 11.1133 6.77148V5.83398C11.1133 5.69336 10.9727 5.55273 10.832 5.55273H10.3633V4.05273H10.832ZM5.48828 3.30273C6.30859 3.30273 6.98828 3.98242 6.98828 4.80273C6.98828 5.64648 6.30859 6.30273 5.48828 6.30273C4.64453 6.30273 3.98828 5.64648 3.98828 4.80273C3.98828 3.98242 4.64453 3.30273 5.48828 3.30273ZM8.11328 8.85742C8.11328 9.11523 7.87891 9.30273 7.57422 9.30273H3.37891C3.09766 9.30273 2.86328 9.11523 2.86328 8.85742V8.41211C2.86328 7.66211 3.56641 7.05273 4.43359 7.05273H4.55078C4.83203 7.19336 5.13672 7.24023 5.48828 7.24023C5.81641 7.24023 6.12109 7.19336 6.40234 7.05273H6.51953C7.38672 7.05273 8.11328 7.66211 8.11328 8.41211V8.85742Z" fill="#CB4C39"/>
</svg>
