<svg width="13" height="10" viewBox="0 0 13 10" fill="none" xmlns="http://www.w3.org/2000/svg">
<path d="M12.3789 3.14941C11.8398 3.57129 11.1602 4.08691 8.76953 5.82129C8.30078 6.17285 7.43359 6.94629 6.61328 6.94629C5.76953 6.94629 4.92578 6.17285 4.43359 5.82129C2.04297 4.08691 1.36328 3.57129 0.824219 3.14941C0.730469 3.0791 0.613281 3.14941 0.613281 3.2666V8.04785C0.613281 8.68066 1.10547 9.17285 1.73828 9.17285H11.4883C12.0977 9.17285 12.6133 8.68066 12.6133 8.04785V3.2666C12.6133 3.14941 12.4727 3.0791 12.3789 3.14941ZM6.61328 6.17285C7.15234 6.19629 7.92578 5.49316 8.32422 5.21191C11.4414 2.96191 11.6758 2.75098 12.3789 2.18848C12.5195 2.09473 12.6133 1.93066 12.6133 1.74316V1.29785C12.6133 0.688477 12.0977 0.172852 11.4883 0.172852H1.73828C1.10547 0.172852 0.613281 0.688477 0.613281 1.29785V1.74316C0.613281 1.93066 0.683594 2.09473 0.824219 2.18848C1.52734 2.75098 1.76172 2.96191 4.87891 5.21191C5.27734 5.49316 6.05078 6.19629 6.61328 6.17285Z" fill="#CB4C39"/>
</svg>
