<svg width="25" height="24" viewBox="0 0 25 24" fill="none" xmlns="http://www.w3.org/2000/svg">
<path d="M16.2287 2.40468V10.8005H4.00345L3.26969 11.5082L2.54836 12.2039V2.40468H16.2287ZM17.4723 0.00585938H1.3047C0.620684 0.00585938 0.0610352 0.545593 0.0610352 1.20527V17.997L5.03569 13.1994H17.4723C18.1563 13.1994 18.716 12.6596 18.716 12V1.20527C18.716 0.545593 18.1563 0.00585938 17.4723 0.00585938ZM23.6906 4.8035H21.2033V15.5982H5.03569V17.997C5.03569 18.6567 5.59534 19.1964 6.27935 19.1964H19.9596L24.9343 23.994V6.0029C24.9343 5.34323 24.3746 4.8035 23.6906 4.8035Z" fill="#CB4C39"/>
</svg>
