<svg width="13" height="13" viewBox="0 0 13 13" fill="none" xmlns="http://www.w3.org/2000/svg">
<path d="M12.168 0.888672L9.73047 0.326172C9.47266 0.255859 9.19141 0.396484 9.07422 0.654297L7.94922 3.2793C7.85547 3.51367 7.92578 3.77148 8.11328 3.93555L9.54297 5.10742C8.69922 6.88867 7.22266 8.38867 5.39453 9.25586L4.22266 7.82617C4.05859 7.63867 3.80078 7.56836 3.56641 7.66211L0.941406 8.78711C0.683594 8.9043 0.566406 9.18555 0.613281 9.44336L1.17578 11.8809C1.24609 12.1387 1.45703 12.3027 1.73828 12.3027C7.73828 12.3027 12.6133 7.45117 12.6133 1.42773C12.6133 1.16992 12.4258 0.958984 12.168 0.888672Z" fill="#CB4C39"/>
</svg>
